<svg width="201" height="43" viewBox="0 0 201 43" fill="none" xmlns="http://www.w3.org/2000/svg">
<g id="BKW Logo" clip-path="url(#clip0_479_3259)">
<g id="BKW">
<path fill-rule="evenodd" clip-rule="evenodd" d="M87.8503 21.2205L87.8453 21.4934C89.1759 21.9945 93.4451 24.8755 93.4467 30.8343C93.4467 39.1697 87.0263 43 78.3485 43H56.8913V0H77.4597C86.1376 0 92.44 3.67981 92.44 12.1624C92.44 17.4233 89.533 19.9239 87.8503 21.2205ZM76.1757 8.28906H68.124V17.4564H76.1757C79.679 17.4564 81.7422 15.8538 81.7422 12.7148C81.7422 9.44678 79.4996 8.28906 76.1757 8.28906ZM68.124 34.7473H76.5743C80.1408 34.7473 82.1708 33.0389 82.1708 30.0305C82.1708 26.574 79.9598 25.4163 76.5743 25.4163H68.124V34.7473Z" fill="#121212"/>
<path d="M124.972 0L112.377 16.9404H111.794V0H100.563V42.9984H111.794V25.5685H112.377L127.235 42.9984H141.413L121.573 20.7574L138.055 0H124.972Z" fill="#121212"/>
<path d="M191.448 42.9984L200.462 0.00164795H189.069L183.807 30.105H183.353L176.765 0.00164795H165.219L158.63 30.105H158.175L152.906 0.00164795L141.452 0L150.361 42.9984H164.278L170.752 14.1453H171.209L177.589 42.9984H191.448Z" fill="#121212"/>
</g>
<path id="square" d="M43.1901 0H0V43H43.1901V0Z" fill="#FF6418"/>
</g>
<defs>
<clipPath id="clip0_479_3259">
<rect width="201" height="43" fill="white"/>
</clipPath>
</defs>
</svg>
