<svg width="24" height="24" viewBox="0 0 24 24" fill="none" xmlns="http://www.w3.org/2000/svg">
<path d="M12 3C7.02944 3 3 7.02944 3 12C3 16.9706 7.0295 21 12 21C16.9706 21 21 16.9705 21 12C21 7.02944 16.9706 3 12 3ZM15.444 16.7999L10.6412 13.0198L13.3601 10.9806L15.6439 16.6498L15.444 16.7999ZM17.8444 15.3741L17.6026 15.2283C17.9606 14.3866 18.1528 13.4582 18.1377 12.4847C18.1141 10.9651 17.5902 9.57078 16.7252 8.45595L6.60206 16.0482C5.75347 14.9196 5.25003 13.5175 5.25003 12C5.25003 8.59512 7.78423 5.77146 11.0654 5.31499L12 6.93379L12.9346 5.31499C16.2158 5.77153 18.75 8.59519 18.75 12C18.75 13.2283 18.42 14.3808 17.8444 15.3741ZM13.3588 10.9803L13.3587 10.9804L13.3588 10.9804L10.64 13.0196L10.639 13.0173L8.35607 7.35024L8.45601 7.27523L8.45595 7.27504L8.45608 7.27517L8.55609 7.20009L13.3588 10.9803Z" fill="#767676"/>
</svg>
