<svg width="20" height="20" viewBox="0 0 20 20" fill="none" xmlns="http://www.w3.org/2000/svg">
<path d="M10.0007 16.157C13.5397 16.157 16.6945 14.3586 18.7435 11.5522C18.9871 11.2185 19.2151 10.8709 19.4262 10.5101C17.4359 6.69494 13.9581 4.16699 10.0007 4.16699C6.04311 4.16699 2.56545 6.69494 0.575012 10.5101C0.786104 10.8708 1.01415 11.2185 1.25767 11.552C3.30668 14.3586 6.46153 16.157 10.0007 16.157ZM10.0005 11.2128C9.21597 11.2128 8.57993 10.5768 8.57993 9.79221C8.57993 9.00764 9.21597 8.37154 10.0005 8.37154C10.7851 8.37154 11.4212 9.00764 11.4212 9.79221C11.4212 10.5768 10.7851 11.2128 10.0005 11.2128ZM6.01319 8.3236C6.6826 8.09427 7.38598 7.91887 8.11535 7.80754V8.03586C7.31249 8.25532 6.541 8.61355 5.8108 9.09193C5.77294 9.31987 5.75233 9.55357 5.75233 9.79226C5.75233 12.1385 7.65437 14.0405 10.0007 14.0405C12.3469 14.0405 14.249 12.1385 14.249 9.79226C14.249 9.27603 14.1567 8.78136 13.9881 8.32365C15.4204 8.81766 16.6992 9.5702 17.7475 10.5137C16.9277 11.6924 15.8915 12.6811 14.7152 13.4011C13.2806 14.2791 11.6504 14.7432 10.0008 14.7432C8.35099 14.7432 6.72072 14.2791 5.2862 13.4011C4.10987 12.6812 3.07364 11.6923 2.25383 10.5136C3.30208 9.57014 4.58088 8.81766 6.01319 8.3236Z" fill="#007FA7"/>
</svg>
